# xmcd CD database file
# Copyright (C) 1995 Ti Kan
#
# Track frame offsets:
#	150
#	14786
#	30766
#	48756
#	62706
#	73020
#	87934
#	99272
#	118077
#	130859
#	142648
#
# Disc length: 2065 seconds
#
# Revision: 1
# Processed by: cddbd v1.4PL0 Copyright (c) Steve Scherf et al.
# Submitted via: NotifyCDPlayer(CDDB) 1.60beta5_freedb
#
DISCID=87080f0b
DTITLE=Waylon Jennings - Ol' Waylon
DYEAR=1900
DGENRE=
TTITLE0=Luckenbach,Texas (Back To The Basics Of Love)
TTITLE1=If You See Me Getting Smaller
TTITLE2=Lucille
TTITLE3=Sweet Caroline
TTITLE4=I Think I'm Gonna Kill Myself
TTITLE5=Belle Of The Ball
TTITLE6=Medley of Elvis Hits (That's All Right/My Baby Left Me)
TTITLE7=Till I Gain Control Again
TTITLE8=Brand New Goodbye Song
TTITLE9=Satin Sheets
TTITLE10=This Is Getting Funny (But There Ain't Nobody Laughing)
EXTD=
EXTT0=
EXTT1=
EXTT2=
EXTT3=
EXTT4=
EXTT5=
EXTT6=
EXTT7=
EXTT8=
EXTT9=
EXTT10=
PLAYORDER=
